<?xml version="1.0" encoding="UTF-8"?>
<svg id="Layer_1" xmlns="http://www.w3.org/2000/svg" version="1.1" viewBox="0 0 70.9 70.9">
  <!-- Generator: Adobe Illustrator 29.1.0, SVG Export Plug-In . SVG Version: 2.1.0 Build 142)  -->
  <defs>
    <style>
      .st0 {
        fill: gray;
      }

      .st0, .st1, .st2 {
        fill-rule: evenodd;
      }

      .st3, .st2 {
        fill: #545656;
      }

      .st1 {
        fill: #fff;
      }

      .st4 {
        fill: #c6c6c6;
      }
    </style>
  </defs>
  <g id="Layer_11" data-name="Layer_1">
    <g id="Layer_x5F_1">
      <g id="_181895168">
        <polygon id="_181263088" class="st1" points="0 0 70.9 0 45.7 45.7 0 70.9 0 0"/>
        <polygon id="_181201536" class="st0" points="70.9 0 70.9 70.9 0 70.9 70.9 0"/>
        <rect id="_181263160" class="st4" x="8.6" y="8.6" width="53.7" height="53.7"/>
      </g>
    </g>
    <g>
      <g>
        <polygon class="st2" points="20.8 36.4 20.5 35.5 20.8 34.5 34.5 34.5 34.5 20.8 35.5 20.5 36.4 20.8 36.4 34.5 50.2 34.5 50.3 35.4 50.2 36.4 36.4 36.4 36.4 50.1 35.5 50.3 34.5 50.1 34.5 36.4 20.8 36.4"/>
        <circle class="st3" cx="28.1" cy="27.9" r="1.5"/>
        <polygon class="st2" points="26.4 45.7 25.6 45.3 25.2 44.5 34.2 35.4 25.2 26.3 25.7 25.6 26.4 25.1 35.5 34.2 44.5 25.1 45.3 25.6 45.8 26.3 36.7 35.4 45.8 44.5 45.4 45.3 44.5 45.7 35.5 36.6 26.4 45.7"/>
        <circle class="st3" cx="35.6" cy="24.9" r="1.5"/>
        <circle class="st3" cx="42.6" cy="28.3" r="1.5"/>
        <circle class="st3" cx="28.3" cy="42.6" r="1.5"/>
        <circle class="st3" cx="42.6" cy="42.6" r="1.5"/>
      </g>
      <circle class="st3" cx="35.5" cy="35.2" r="8.2"/>
    </g>
  </g>
</svg>